<svg width="63" height="63" viewBox="0 0 63 63" fill="none" xmlns="http://www.w3.org/2000/svg">
<path d="M51.1875 14.4375L49.5608 40.7534C49.145 47.4768 48.9373 50.8386 47.2521 53.2557C46.4187 54.4506 45.3461 55.4592 44.1018 56.217C41.5855 57.75 38.2174 57.75 31.4808 57.75C24.7357 57.75 21.363 57.75 18.845 56.2141C17.6001 55.455 16.527 54.4446 15.694 53.2476C14.0093 50.8268 13.8061 47.4603 13.3996 40.7274L11.8125 14.4375" stroke="#6B6671" stroke-linecap="round"/>
<path d="M7.875 14.4375H55.125M42.1462 14.4375L40.3544 10.7408C39.164 8.28518 38.5686 7.05737 37.542 6.29163C37.3144 6.12176 37.0731 5.97067 36.8209 5.83984C35.684 5.25 34.3195 5.25 31.5906 5.25C28.7931 5.25 27.3945 5.25 26.2387 5.86456C25.9825 6.00078 25.7381 6.15799 25.5079 6.33457C24.4693 7.13134 23.8892 8.40407 22.7289 10.9496L21.1389 14.4375" stroke="#6B6671" stroke-linecap="round"/>
<path d="M24.9375 43.3125V27.5625" stroke="#6B6671" stroke-linecap="round"/>
<path d="M38.0625 43.3125V27.5625" stroke="#6B6671" stroke-linecap="round"/>
</svg>
